PathFileType	4	(X/Y/Z)	E:\Qualisys_Data\Carbon_Farble_Plate\Data\Amateur_Runner\S1\T2\S1T2V21_c3d.trc
DataRate	CameraRate	NumFrames	NumMarkers	Units	OrigDataRate	OrigDataStartFrame	OrigNumFrames
200.000000	200.000000	4	39	mm	200.000000	35	284
Frame#	Time	LSHO			RSHO			LICST			RICST			LASIS			LHEEL			RASIS			LTROC			RTROC			SACR			LTH1			LSK4			LTH2			LTH3			RHM5			LSK2			LTH4			RTH1			LTOE			RTH2			RTH3			RTH4			LLEP			RLEP			LSK1			LSK3			RSK1			LHM5			RSK2			LFT1			RSK3			RSK4			LLME			RLME			RTOE			RHEEL			RFT1			RFT2			LFT2			
		X1	Y1	Z1	X2	Y2	Z2	X3	Y3	Z3	X4	Y4	Z4	X5	Y5	Z5	X6	Y6	Z6	X7	Y7	Z7	X8	Y8	Z8	X9	Y9	Z9	X10	Y10	Z10	X11	Y11	Z11	X12	Y12	Z12	X13	Y13	Z13	X14	Y14	Z14	X15	Y15	Z15	X16	Y16	Z16	X17	Y17	Z17	X18	Y18	Z18	X19	Y19	Z19	X20	Y20	Z20	X21	Y21	Z21	X22	Y22	Z22	X23	Y23	Z23	X24	Y24	Z24	X25	Y25	Z25	X26	Y26	Z26	X27	Y27	Z27	X28	Y28	Z28	X29	Y29	Z29	X30	Y30	Z30	X31	Y31	Z31	X32	Y32	Z32	X33	Y33	Z33	X34	Y34	Z34	X35	Y35	Z35	X36	Y36	Z36	X37	Y37	Z37	X38	Y38	Z38	X39	Y39	Z39	

36	0.175	-1917.212646484375	1491.867797851562	-543.9190063476562	-1933.874145507812	1455.87353515625	-213.1684112548828	-1945.226318359375	1001.635375976562	-528.7000732421875	-1951.31298828125	1040.161743164062	-227.8235626220703	-1897.9423828125	967.97314453125	-497.2928771972656	-2176.915283203125	424.2257995605469	-432.0127258300781	-1906.691040039062	993.7538452148438	-230.4367523193359	-1992.620239257812	875.4256591796875	-539.9865112304688	-2015.222534179688	899.731201171875	-204.4284515380859	-2066.279296875	1031.080444335938	-378.7557678222656	-1806.988037109375	794.5193481445312	-521.8855590820312	-2031.067138671875	480.6963806152344	-470.2400512695312	-1873.847900390625	750.8585205078125	-553.255615234375	-1753.058959960938	705.711669921875	-515.2006225585938	-1973.605346679688	60.27651596069336	-254.6664428710938	-1940.451171875	510.953125	-510.3635559082031	-1823.90380859375	662.830078125	-538.5826416015625	-1871.17919921875	775.8056640625	-215.6524200439453	-2075.27880859375	192.4063720703125	-445.6087341308594	-1948.268310546875	764.8737182617188	-195.6702270507812	-1863.065063476562	674.56787109375	-228.0939483642578	-1943.12890625	667.2896118164062	-214.3797149658203	-1740.464599609375	544.0699462890625	-504.3669128417969	-1903.192016601562	498.5558166503906	-258.9429016113281	-1914.770385742188	431.4407653808594	-500.7362060546875	-2012.688232421875	404.9398193359375	-493.4321594238281	-1965.912109375	319.8216247558594	-253.8820190429688	-2129.377685546875	241.5507965087891	-508.6466369628906	-2040.158935546875	352.2934265136719	-258.2835083007812	-2199.5234375	402.6107177734375	-408.2530517578125	-2003.302124023438	228.1397094726562	-270.96337890625	-2075.63427734375	261.9778442382812	-285.8842468261719	-2129.598388671875	390.5801086425781	-485.8093566894531	-2086.255859375	128.9893493652344	-273.6512451171875	-1910.741088867188	66.19266510009766	-333.8278198242188	-2161.434814453125	108.1884078979492	-314.2663879394531	-2155.39208984375	74.95274353027344	-343.643310546875	-2163.1123046875	78.9712905883789	-288.3382263183594	-2202.8720703125	407.3669738769531	-461.671142578125
37	0.18	-1899.741088867188	1494.84423828125	-544.853759765625	-1910.599609375	1458.75732421875	-214.4271087646484	-1925.398071289062	1004.653869628906	-528.3229370117188	-1929.108154296875	1041.89892578125	-227.6861877441406	-1877.818237304688	972.4833374023438	-498.0309143066406	-2143.72607421875	411.9623107910156	-433.4300842285156	-1885.1455078125	995.1466064453124	-232.3650970458984	-1971.939208984375	878.9993286132812	-540.0460205078125	-1994.137084960938	901.3777465820312	-204.1316223144531	-2043.960693359375	1033.144165039062	-375.9946899414062	-1784.461181640625	801.1873168945312	-521.3029174804688	-2000.84375	476.6805725097656	-471.3527221679688	-1850.28173828125	755.7653198242188	-552.728759765625	-1728.886352539062	713.8949584960938	-514.6527709960938	-1972.937133789062	60.6713752746582	-255.0391998291016	-1910.650512695312	509.8052368164062	-510.1819458007812	-1798.50048828125	669.2642822265625	-537.7293090820312	-1854.338745117188	772.428955078125	-216.5569458007812	-2029.335205078125	185.4049682617188	-446.3041687011719	-1932.841186523438	766.1690063476562	-196.4816589355469	-1850.36474609375	671.27001953125	-228.3171691894531	-1931.2939453125	667.2088623046875	-215.5539703369141	-1711.805786132812	552.258056640625	-503.3091735839844	-1894.181640625	498.6251831054688	-260.499267578125	-1880.776000976562	431.2643432617188	-499.6788024902344	-1977.223022460938	401.0335388183594	-492.9005432128906	-1959.814208984375	321.2420959472656	-254.3902282714844	-2082.965576171875	232.5768890380859	-509.6762084960938	-2033.987060546875	355.0128784179688	-257.9658813476562	-2164.836181640625	389.3413696289062	-409.1484069824219	-1999.7353515625	229.9981079101562	-271.7524719238281	-2072.278076171875	265.4772033691406	-285.4117431640625	-2094.800537109375	380.8268737792969	-486.81298828125	-2084.874267578125	131.2548217773438	-273.6565551757812	-1911.629760742188	65.55931091308594	-334.7243957519531	-2160.763671875	109.1209182739258	-313.7209167480469	-2154.98486328125	76.0511474609375	-343.5014343261719	-2162.32568359375	79.72323608398438	-287.9183349609375	-2168.99072265625	393.9466552734375	-462.7373657226562
38	0.185	-1882.406005859375	1497.822143554688	-545.6909790039062	-1886.922729492188	1461.738525390625	-215.2372589111328	-1905.408935546875	1008.502502441406	-528.311279296875	-1905.447265625	1042.842651367188	-227.1564636230469	-1857.73681640625	976.6121826171876	-498.8227844238281	-2110.381591796875	399.4494323730469	-434.4389343261719	-1861.095947265625	996.4931030273438	-232.0570068359375	-1950.834594726562	882.7566528320312	-539.9901123046875	-1972.08544921875	903.7149047851562	-203.5294036865234	-2022.912353515625	1035.783081054688	-374.8211059570312	-1762.73681640625	808.045166015625	-520.3757934570312	-1969.271118164062	469.6994323730469	-472.2349243164062	-1827.438354492188	760.4992065429688	-552.320556640625	-1705.15185546875	721.6732788085938	-514.663818359375	-1972.805419921875	60.78133010864258	-255.8917236328125	-1881.038696289062	509.0445251464844	-510.2523498535156	-1773.159545898438	675.4697875976562	-536.7301025390625	-1837.796020507812	770.9021606445312	-217.5366668701172	-1983.79833984375	179.1687622070312	-447.0902099609375	-1914.88232421875	767.0414428710938	-197.3644561767578	-1838.35595703125	669.3233032226562	-230.2119293212891	-1917.487182617188	669.22265625	-216.0356140136719	-1683.823486328125	560.6243286132812	-502.4185791015625	-1883.467651367188	500.0175476074219	-261.7274780273438	-1846.890747070312	430.814208984375	-498.4511108398438	-1943.67529296875	397.2020874023438	-494.3524169921875	-1955.474609375	322.8069152832031	-255.2220001220703	-2041.298583984375	223.0390777587891	-510.0102233886719	-2028.891479492188	357.658935546875	-258.2434692382812	-2129.908935546875	375.6328125	-409.8570556640625	-1996.465698242188	232.7618255615234	-272.0243225097656	-2067.548095703125	268.7073974609375	-285.782958984375	-2059.65869140625	370.8670654296875	-487.5693969726562	-2082.958984375	134.4816741943359	-273.2536926269531	-1910.317260742188	66.08256530761719	-334.6069641113281	-2162.523193359375	111.1958847045898	-313.6706848144531	-2155.200439453125	77.88126373291016	-343.6101379394531	-2162.822265625	81.2872543334961	-288.6864929199219	-2134.053955078125	379.8103942871094	-463.6814880371094
39	0.19	-1865.229370117188	1501.066284179688	-547.1068725585938	-1864.263427734375	1465.220703125	-216.6300964355469	-1884.930297851562	1013.06494140625	-528.0470581054688	-1882.351806640625	1044.55126953125	-226.9373321533203	-1836.296752929688	980.6217651367188	-499.3226013183594	-2076.666259765625	386.8014526367188	-435.6117553710938	-1838.788696289062	996.7822265625	-232.4808044433594	-1930.0732421875	887.2061157226562	-540.4120483398438	-1950.729858398438	905.6039428710938	-203.4746246337891	-2000.621948242188	1038.010498046875	-372.5637817382812	-1741.634765625	815.571044921875	-520.8855590820312	-1938.727416992188	464.6856384277344	-472.7173767089844	-1804.630493164062	766.0748901367188	-551.5187377929688	-1680.582275390625	730.2479248046875	-512.8889770507812	-1972.464233398438	61.4177131652832	-256.978759765625	-1851.14208984375	507.3245544433594	-509.6496276855469	-1748.697143554688	681.998046875	-535.2855834960938	-1820.679565429688	771.2117919921875	-218.8242950439453	-1937.747436523438	173.2071533203125	-448.4872436523438	-1897.558349609375	769.1713256835938	-197.6559753417969	-1824.08203125	669.1401977539062	-231.4741668701172	-1903.666381835938	671.4915771484375	-217.1615753173828	-1657.354858398438	568.8897705078125	-501.6585388183594	-1874.66796875	501.3030090332031	-264.1631774902344	-1813.397827148438	430.7695007324219	-498.2413024902344	-1908.499145507812	393.2981567382812	-494.29638671875	-1949.904663085938	324.3743286132812	-256.5621032714844	-2001.555786132812	211.7503509521484	-512.2734985351562	-2022.813232421875	361.1586303710938	-258.0788879394531	-2095.08642578125	361.3690490722656	-411.6658630371094	-1993.234130859375	235.7186584472656	-272.3669738769531	-2064.03271484375	272.8239440917969	-286.1963195800781	-2023.888916015625	361.2599182128906	-488.5932312011719	-2080.67529296875	137.8621368408203	-272.9261474609375	-1909.488647460938	66.23966979980469	-335.1181640625	-2161.906005859375	112.9892807006836	-314.0296020507812	-2153.718994140625	78.53582000732422	-343.1349487304688	-2162.287841796875	83.85478973388672	-289.25439453125	-2099.44677734375	365.2421264648438	-464.4438781738281
